<svg width="1300" height="700" viewBox="0 0 1300 700" xmlns="http://www.w3.org/2000/svg">
  <!-- Grid Icon -->
  <g transform="translate(140, 165)">
    <!-- Top-left quarter -->
    <path d="M 0 0 L 200 0 Q 210 0 210 10 L 210 200 Q 210 210 200 210 L 10 210 Q 0 210 0 200 Z" fill="#1E4B9E"/>
    <!-- Top-right quarter -->
    <path d="M 380 0 L 580 0 Q 590 0 590 10 L 590 200 Q 590 210 580 210 L 390 210 Q 380 210 380 200 Z" fill="#2D5FAE"/>
    <!-- Bottom-left quarter -->
    <path d="M 0 380 L 200 380 Q 210 380 210 390 L 210 580 Q 210 590 200 590 L 10 590 Q 0 590 0 580 Z" fill="#2D5FAE"/>
    <!-- Bottom-right quarter -->
    <path d="M 380 380 L 580 380 Q 590 380 590 390 L 590 580 Q 590 590 580 590 L 390 590 Q 380 590 380 580 Z" fill="#1E4B9E"/>
  </g>

  <!-- Text -->
  <text x="750" y="340" font-family="Arial, sans-serif" font-size="120" font-weight="bold" fill="#1E4B9E">SHIFTTRACK</text>
  <text x="750" y="480" font-family="Arial, sans-serif" font-size="120" font-weight="bold" fill="#1E4B9E">PRO</text>
</svg>
